<svg width="64" height="64" viewBox="0 0 64 64" fill="none" xmlns="http://www.w3.org/2000/svg">
  <rect width="64" height="64" rx="18" fill="#C8FF3D"/>
  <path d="M18 22.5C18 19.4624 20.4624 17 23.5 17H37.5C42.1944 17 46 20.8056 46 25.5V38.5C46 43.1944 42.1944 47 37.5 47H23.5C20.4624 47 18 44.5376 18 41.5V22.5Z" fill="#071B39"/>
  <path d="M27 25H34.2C38.5078 25 42 28.4922 42 32.8V32.8C42 37.1078 38.5078 40.6 34.2 40.6H27V25Z" fill="#C8FF3D"/>
  <path d="M31 29V36.6H34.1C36.1987 36.6 37.9 34.8987 37.9 32.8C37.9 30.7013 36.1987 29 34.1 29H31Z" fill="#071B39"/>
</svg>
